<svg id="Layer_1" xmlns="http://www.w3.org/2000/svg" viewBox="0 0 16 16"><style>.st0{fill:#1a73e8}.st1{fill:#ea4335}.st2{fill:#4285f4}.st3{fill:#fbbc04}.st4{fill:#34a853}</style><path class="st0" d="M9.687.26A5.595 5.595 0 0 0 8 0C6.285 0 4.75.775 3.726 1.994l2.637 2.219L9.687.26z"/><path class="st1" d="M3.725 1.994a5.56 5.56 0 0 0-1.307 3.588c0 1.05.209 1.9.553 2.663l3.392-4.032-2.638-2.219z"/><path class="st2" d="M8 3.448a2.135 2.135 0 0 1 1.631 3.513l3.323-3.951A5.594 5.594 0 0 0 9.688.26L6.362 4.212A2.13 2.13 0 0 1 8 3.448"/><path class="st3" d="M8 7.717a2.135 2.135 0 0 1-1.638-3.506L2.97 8.244c.579 1.286 1.544 2.318 2.537 3.618L9.63 6.961A2.13 2.13 0 0 1 8 7.717"/><path class="st4" d="M9.549 13.201c1.862-2.912 4.033-4.234 4.033-7.619 0-.928-.227-1.803-.628-2.572l-7.446 8.853c.316.414.634.854.945 1.339C7.586 14.951 7.271 16 8.002 16c.728 0 .415-1.05 1.547-2.799"/></svg>